<svg id="Layer_1" data-name="Layer 1" xmlns="http://www.w3.org/2000/svg" xmlns:xlink="http://www.w3.org/1999/xlink" viewBox="0 0 170 55"><defs><linearGradient id="linear-gradient" x1="8.62" y1="26.37" x2="65.08" y2="26.37" gradientTransform="translate(-4.78 0.92)" gradientUnits="userSpaceOnUse"><stop offset="0.4" stop-color="#cd2127"/><stop offset="0.6" stop-color="#981b1f"/></linearGradient></defs><title>logo</title><path d="M40.45,31.86v-.7h0v.71Z" style="fill:#920d10"/><path d="M60,36.07a6.82,6.82,0,0,0-.9-.31,25.38,25.38,0,0,0-3-.5c-.49-.08-.59-.33-.45-.74a3.3,3.3,0,0,1,.45-.9c1.09-1.67,2.2-3.33,3.17-5.07a4,4,0,0,0,.54-1.68,1.32,1.32,0,0,0-.08-.59.72.72,0,0,0-.79-.41h-.07a13.92,13.92,0,0,0-1.57.27c-1.69.4-3.37.83-5.06,1.22-.79.19-1,0-1-.8s.06-1.6.07-2.4a11.44,11.44,0,0,0,0-2.34c0-.22-.12-.47-.33-.54a.7.7,0,0,0-.47.08,3.8,3.8,0,0,0-.94.69c-1.8,1.57-3.6,3.16-5.4,4.72a6.21,6.21,0,0,1-1.85,1.14c-.45.16-.69,0-.73-.46a5.63,5.63,0,0,1,0-1.16c.39-2.93.8-5.86,1.2-8.79.24-1.76.55-3.5.68-5.27,0-.1,0-.21,0-.32s0-.21,0-.31c0-.39-.27-.46-.59-.42a4.3,4.3,0,0,0-1.21.35l-3.38,1.4c-.83.33-.9.3-1.33-.48-.13-.23-.25-.47-.36-.71-.51-1.1-1-2.21-1.54-3.32s-1.14-2.51-1.83-3.7a2.66,2.66,0,0,0-.61-.8.88.88,0,0,0-.53-.23.84.84,0,0,0-.66.35,4.84,4.84,0,0,0-.65,1c-.76,1.4-1.39,2.87-2.08,4.3-.54,1.12-1,2.28-1.6,3.36a.68.68,0,0,1-1,.35c-1.19-.51-2.39-1-3.59-1.48a7.75,7.75,0,0,0-1.16-.35.88.88,0,0,0-.36,0,.39.39,0,0,0-.28.34,4.28,4.28,0,0,0,0,.8c0,.34.07.69.11,1l.11.74c.06.49.13,1,.2,1.47l.21,1.47c.06.48.13,1,.2,1.46s.14,1,.2,1.47l.21,1.47c.07.49.13,1,.2,1.47.18,1.29.42,2.58.49,3.87,0,.43.06,1.37-.63,1.16a6.65,6.65,0,0,1-2.48-1.72c-1.44-1.36-3-2.56-4.54-3.84l-.82-.7a1.69,1.69,0,0,0-.65-.4c-.45-.12-.6.39-.65.74a4.18,4.18,0,0,0,0,.79c0,1.23.08,2.45.1,3.67,0,.9-.19,1.08-1.08.87-1.09-.25-2.16-.54-3.25-.81a28.3,28.3,0,0,0-3.17-.66c-.86-.11-1.23.3-1.1,1.15a4.27,4.27,0,0,0,.54,1.43c1,1.77,2.09,3.45,3.2,5.14a3.2,3.2,0,0,1,.49,1.06c.06.31,0,.52-.38.57s-1,.13-1.42.21a11.58,11.58,0,0,0-2.4.54c-.6.23-.65.5-.25,1a3.89,3.89,0,0,0,.88.69c2.62,1.69,5.31,3.26,8,4.9.4.25.81.49,1.23.73s.83.47,1.24.72.82.49,1.22.76.61.42.9.65l.17.13a.44.44,0,0,1,.13.14.3.3,0,0,1,0,.21,2,2,0,0,1-.43.82,5.27,5.27,0,0,1-.44.52c-.3.33-.65.62-1,.92l-.26.23a12.87,12.87,0,0,0-1.42,1.44c-.17.24-.46.49-.3.8s.53.22.83.19c.54-.06,1.09-.14,1.63-.24,1-.19,2-.36,3.05-.52s2-.29,3-.39l.53,0,.27,0a2.56,2.56,0,0,1,.27,0,1.74,1.74,0,0,0,.78-.44l.52-.5c.35-.34.7-.68,1-1a13.26,13.26,0,0,0,1.38-1.87,12.58,12.58,0,0,0,1-2.05A14.17,14.17,0,0,0,29,41.43a17.22,17.22,0,0,0,.31-2.38c0-.39,0-.79,0-1.18-.5.18-.88.3-1.25.45-2.09.84-4.17,1.7-6.25,2.55-.69.28-.88.16-.77-.59a5.64,5.64,0,0,1,2.45-4.19c1.77-1.18,3.53-2.39,5.32-3.54a1.08,1.08,0,0,0,.52-1.06c0-1.81-.08-3.63,0-5.44a7.2,7.2,0,0,1,1.51-4.33c.37-.46.68-.68,1-.64H32a1.71,1.71,0,0,1,.86.66,5.93,5.93,0,0,1,1.33,3.35c.16,2,.19,4.06.19,6.08a1.54,1.54,0,0,0,.71,1.54c1.84,1.17,3.63,2.4,5.4,3.67a5,5,0,0,1,1.91,2.9,8.85,8.85,0,0,1,.16.87c0,.21.15.73-.13.83s-.57-.16-.75-.23c-.46-.18-.92-.37-1.37-.57l-2-.81-3.9-1.56a2.45,2.45,0,0,1,0,.47c0,.16,0,.32,0,.48,0,.32,0,.63.06,1a16.18,16.18,0,0,0,.28,1.81,13.12,13.12,0,0,0,1.17,3.32,13.82,13.82,0,0,0,1.5,2.33c.29.36.58.69.89,1a9.56,9.56,0,0,0,1,1,2.6,2.6,0,0,0,1.51.47c.45,0,.9.07,1.34.13.69.08,1.38.16,2.07.27l1,.17c1.41.24,2.83.45,4.25.66.25,0,.57.07.72-.21s-.09-.47-.23-.66a9.66,9.66,0,0,0-1.47-1.53,11,11,0,0,1-2-2.06c-.35-.56-.32-.73.24-1.08.9-.56,1.81-1.1,2.72-1.65,3.3-2,6.63-4,9.87-6a3.38,3.38,0,0,0,.88-.76C60.39,36.51,60.34,36.23,60,36.07Z" style="fill:url(#linear-gradient)"/><path d="M95.52,13.19a1.21,1.21,0,0,1,.89.36,1.23,1.23,0,0,1,.37.9v9.1a1.22,1.22,0,0,1-.37.89,1.27,1.27,0,0,1-1.79,0,1.22,1.22,0,0,1-.37-.89V20.26H88.68v3.29a1.22,1.22,0,0,1-.37.89,1.27,1.27,0,0,1-2.16-.89v-9.1a1.19,1.19,0,0,1,.37-.9,1.29,1.29,0,0,1,1.79,0,1.23,1.23,0,0,1,.37.9v3.28h5.57V14.45a1.25,1.25,0,0,1,1.27-1.26Z" style="fill:#f2ba49"/><path d="M111.19,23a1.25,1.25,0,0,1,.07,1,1.18,1.18,0,0,1-.62.73,1.24,1.24,0,0,1-1,.09,1.21,1.21,0,0,1-.74-.62,3.91,3.91,0,0,0-.18-.35c-.11-.2-.27-.51-.48-.92h-5.91c-.21.41-.37.72-.48.92a3.91,3.91,0,0,0-.18.35,1.21,1.21,0,0,1-.73.62,1.26,1.26,0,0,1-1-.09,1.21,1.21,0,0,1-.62-.73,1.26,1.26,0,0,1,.09-1l4.73-9.09a1.26,1.26,0,0,1,.47-.5,1.25,1.25,0,0,1,1.29,0,1.26,1.26,0,0,1,.47.5Zm-4-2.45L105.33,17l-1.81,3.47Z" style="fill:#f2ba49"/><path d="M119.44,13.19a4.09,4.09,0,0,1,1.56.3,4.1,4.1,0,0,1,2.21,5.35,4,4,0,0,1-.89,1.32,4,4,0,0,1-1.32.89,4.09,4.09,0,0,1-1.56.3h-3v2.2a1.21,1.21,0,0,1-.36.89,1.27,1.27,0,0,1-2.16-.89v-9.1a1.19,1.19,0,0,1,.37-.9,1.21,1.21,0,0,1,.89-.36Zm-3,2.52v3.12h3a1.53,1.53,0,0,0,.6-.12,1.64,1.64,0,0,0,.5-.34,1.41,1.41,0,0,0,.33-.49,1.51,1.51,0,0,0,.13-.61,1.54,1.54,0,0,0-.13-.6,1.67,1.67,0,0,0-.33-.5,1.64,1.64,0,0,0-.5-.34,1.53,1.53,0,0,0-.6-.12Z" style="fill:#f2ba49"/><path d="M132,13.19a4,4,0,0,1,2.89,1.19,4.25,4.25,0,0,1,.89,1.33,4.23,4.23,0,0,1,0,3.13,4.33,4.33,0,0,1-.89,1.32A4,4,0,0,1,132,21.35h-3v2.2a1.27,1.27,0,0,1-2.16.89,1.22,1.22,0,0,1-.37-.89v-9.1a1.25,1.25,0,0,1,1.27-1.26Zm-3,2.52v3.12h3a1.53,1.53,0,0,0,.6-.12,1.64,1.64,0,0,0,.5-.34,1.41,1.41,0,0,0,.33-.49,1.36,1.36,0,0,0,.13-.61,1.38,1.38,0,0,0-.13-.6,1.67,1.67,0,0,0-.33-.5,1.64,1.64,0,0,0-.5-.34,1.53,1.53,0,0,0-.6-.12Z" style="fill:#f2ba49"/><path d="M148,13.44a1.25,1.25,0,0,1,.28,1.76l-3.82,5.26v3.09a1.26,1.26,0,1,1-2.52,0V20.46l-3.82-5.26a1.28,1.28,0,0,1-.22-.94,1.21,1.21,0,0,1,.5-.82,1.26,1.26,0,0,1,1-.24,1.2,1.2,0,0,1,.81.52l1.1,1.49,1,1.37c.35.49.66.93.95,1.32l1-1.32c.34-.49.67-.95,1-1.37l1.1-1.49a1.2,1.2,0,0,1,.81-.52A1.25,1.25,0,0,1,148,13.44Z" style="fill:#f2ba49"/><path d="M78.14,30.38a1.2,1.2,0,0,1,.64-.42,1.34,1.34,0,0,1,.77,0,1.3,1.3,0,0,1,.62.46,1.26,1.26,0,0,1,.23.72v9.1a1.23,1.23,0,0,1-1.26,1.26,1.24,1.24,0,0,1-.9-.36,1.25,1.25,0,0,1-.36-.9V34.8l-2.43,3.05a1.19,1.19,0,0,1-1,.48,1.25,1.25,0,0,1-.54-.12,1.17,1.17,0,0,1-.44-.36l-.77-.94-.78-1c-.3-.37-.59-.74-.89-1.13v5.46a1.27,1.27,0,0,1-2.16.9,1.25,1.25,0,0,1-.36-.9v-9.1a1.19,1.19,0,0,1,.23-.72,1.28,1.28,0,0,1,.61-.46,1.35,1.35,0,0,1,.77,0,1.17,1.17,0,0,1,.64.42c.48.6.94,1.18,1.38,1.75l.6.75.61.78.58.74.52.65c.15-.2.32-.42.51-.65s.38-.48.58-.74l.62-.78.6-.75Z" style="fill:#f2ba49"/><path d="M83.69,30.27a1.27,1.27,0,0,1,1.79,0,1.22,1.22,0,0,1,.37.89v9.1a1.26,1.26,0,0,1-.37.9,1.27,1.27,0,0,1-2.16-.9v-9.1A1.19,1.19,0,0,1,83.69,30.27Z" style="fill:#f2ba49"/><path d="M91.89,30.2a6,6,0,0,1,2.34-.48,5.77,5.77,0,0,1,2.32.48,5.89,5.89,0,0,1,1.91,1.28,1.19,1.19,0,0,1,.38.9,1.13,1.13,0,0,1-.38.87,1.2,1.2,0,0,1-1.77,0,3.81,3.81,0,0,0-1.13-.74,3.36,3.36,0,0,0-1.33-.27,3.25,3.25,0,0,0-1.36.28,3.49,3.49,0,0,0-1.1.74A3.85,3.85,0,0,0,91,34.37a3.51,3.51,0,0,0,0,2.7,3.45,3.45,0,0,0,1.84,1.84,3.4,3.4,0,0,0,1.36.27,3.24,3.24,0,0,0,2.07-.7V36.77a1.22,1.22,0,0,1,.37-.89,1.27,1.27,0,0,1,2.16.89v2.3a1.25,1.25,0,0,1-.37.89,5.73,5.73,0,0,1-1.91,1.28,5.79,5.79,0,0,1-2.32.46,5.92,5.92,0,0,1-2.34-.46,5.93,5.93,0,0,1-3.19-3.19,5.92,5.92,0,0,1-.46-2.34,6,6,0,0,1,.11-1.19,6.17,6.17,0,0,1,.35-1.13,5.93,5.93,0,0,1,3.19-3.19Z" style="fill:#f2ba49"/><path d="M110.83,39.46a1.24,1.24,0,0,1-.07,1.78,1.16,1.16,0,0,1-.9.34,1.26,1.26,0,0,1-.89-.41l-2.84-3.1h-2.24v2.19a1.25,1.25,0,0,1-1.26,1.26,1.24,1.24,0,0,1-.9-.36,1.25,1.25,0,0,1-.36-.9v-9.1a1.25,1.25,0,0,1,1.26-1.26h4.26a3.93,3.93,0,0,1,1.57.31,3.8,3.8,0,0,1,1.32.89,3.9,3.9,0,0,1,.89,1.32A4,4,0,0,1,111,34a3.91,3.91,0,0,1-.31,1.56,3.8,3.8,0,0,1-.89,1.32,2.92,2.92,0,0,1-.37.34l-.39.28Zm-6.94-3.91h3a1.59,1.59,0,0,0,.61-.13,1.56,1.56,0,0,0,.5-.33,1.51,1.51,0,0,0,.33-.49,1.58,1.58,0,0,0-.33-1.71,1.6,1.6,0,0,0-1.11-.47h-3Z" style="fill:#f2ba49"/><path d="M124.29,39.68a1.24,1.24,0,0,1,.08,1,1.2,1.2,0,0,1-.63.73,1.16,1.16,0,0,1-1,.09,1.18,1.18,0,0,1-.73-.62c0-.11-.12-.23-.18-.35s-.27-.5-.48-.91h-5.91c-.21.41-.37.71-.48.91l-.19.35a1.25,1.25,0,1,1-2.22-1.16l4.73-9.1a1.38,1.38,0,0,1,.46-.5,1.26,1.26,0,0,1,1.3,0,1.3,1.3,0,0,1,.46.5Zm-4.05-2.46-1.81-3.47-1.81,3.47Z" style="fill:#f2ba49"/><path d="M133.36,30.27a1.29,1.29,0,0,1,0,1.79,1.25,1.25,0,0,1-.9.36H130v7.84a1.27,1.27,0,0,1-2.16.9,1.25,1.25,0,0,1-.36-.9V32.42h-2.44a1.26,1.26,0,0,1-.9-2.15,1.19,1.19,0,0,1,.9-.37h7.4A1.22,1.22,0,0,1,133.36,30.27Z" style="fill:#f2ba49"/><path d="M135.81,30.27a1.21,1.21,0,0,1,.9-.37A1.26,1.26,0,0,1,138,31.16v9.1a1.25,1.25,0,0,1-1.26,1.26,1.24,1.24,0,0,1-.9-.36,1.25,1.25,0,0,1-.36-.9v-9.1A1.21,1.21,0,0,1,135.81,30.27Z" style="fill:#f2ba49"/><path d="M144,30.2a6,6,0,0,1,2.34-.48,6,6,0,0,1,2.34.48,6.06,6.06,0,0,1,1.9,1.28,5.86,5.86,0,0,1,1.29,1.91,5.48,5.48,0,0,1,.35,1.13,6,6,0,0,1,.12,1.19A6,6,0,0,1,144,41.24,5.75,5.75,0,0,1,142.12,40a6.31,6.31,0,0,1-1.29-1.91,5.93,5.93,0,0,1-.47-2.34,6,6,0,0,1,.12-1.19,4.94,4.94,0,0,1,.35-1.13,6.19,6.19,0,0,1,1.29-1.91A5.91,5.91,0,0,1,144,30.2Zm-1.13,5.51a3.41,3.41,0,0,0,.28,1.36,3.49,3.49,0,0,0,.74,1.1,3.85,3.85,0,0,0,1.11.74,3.49,3.49,0,0,0,2.69,0,3.67,3.67,0,0,0,1.1-.74,3.36,3.36,0,0,0,.75-1.1,3.51,3.51,0,0,0,0-2.7,3.49,3.49,0,0,0-1.85-1.85,3.37,3.37,0,0,0-2.69,0,3.4,3.4,0,0,0-1.85,1.85A3.39,3.39,0,0,0,142.88,35.71Z" style="fill:#f2ba49"/><path d="M155.57,30a1.33,1.33,0,0,1,.74,0,1.3,1.3,0,0,1,.65.4l1.89,2.29.87,1,.91,1.09.92,1.08c.31.36.6.7.89,1V31.16a1.26,1.26,0,1,1,2.52,0v9.1a1.22,1.22,0,0,1-.22.71,1.18,1.18,0,0,1-.59.47,1.24,1.24,0,0,1-.76,0,1.17,1.17,0,0,1-.64-.4l-1.9-2.29c-.56-.66-1.15-1.37-1.79-2.11l-1.8-2.12v5.71A1.25,1.25,0,0,1,156,41.52a1.24,1.24,0,0,1-.9-.36,1.25,1.25,0,0,1-.36-.9v-9.1a1.24,1.24,0,0,1,.22-.71A1.19,1.19,0,0,1,155.57,30Z" style="fill:#f2ba49"/></svg>